<?xml version="1.0" encoding="UTF-8"?>
<svg width="752pt" height="752pt" version="1.1" viewBox="0 0 752 752" xmlns="http://www.w3.org/2000/svg">
 <defs>
  <clipPath id="b">
   <path d="m139.21 139.21h473.58v375.79h-473.58z"/>
  </clipPath>
  <clipPath id="a">
   <path d="m260 593h236v19.793h-236z"/>
  </clipPath>
 </defs>
 <g clip-path="url(#b)">
  <path d="m569.12 158.15c13.68 0 25.258 11.578 25.258 25.258v287.31c0 13.68-11.578 25.258-25.258 25.258h-386.23c-13.68 0-25.258-11.578-25.258-25.258v-287.31c0-13.68 11.578-25.258 25.258-25.258h386.23m0-18.414h-386.23c-24.207 0-43.676 19.469-43.676 43.672v287.31c0 24.207 19.469 43.676 43.676 43.676h386.23c24.207 0 43.676-19.469 43.676-43.676v-287.31c0-24.203-19.469-43.672-43.676-43.672z"/>
 </g>
 <path d="m322.86 526.5h106.29v48.938h-106.29z"/>
 <g clip-path="url(#a)">
  <path d="m260.76 593.85h235.21v18.418h-235.21z"/>
 </g>
 <path d="m221.3 368.11-38.938-38.941 38.938-38.938 8.4219 8.418-30.52 30.52 30.52 29.996z"/>
 <path d="m530.7 368.11 38.941-38.941-38.941-38.938-8.418 8.418 30.52 30.52-30.52 29.996z"/>
 <path d="m376 214.46c-58.41 0-105.77 47.359-105.77 105.77v123.66l58.41-29.469 47.883 29.469 47.883-29.469 58.41 29.469v-123.66c-1.0508-58.406-48.41-105.77-106.82-105.77zm-46.305 107.87c-11.051 0-20.523-8.9453-20.523-20.523 0-11.051 8.9453-20.523 20.523-20.523 11.051 0 20.523 8.9453 20.523 20.523 0 11.051-8.9453 20.523-20.523 20.523zm92.613 0c-11.051 0-20.523-8.9453-20.523-20.523 0-11.051 8.9453-20.523 20.523-20.523 11.051 0 20.523 8.9453 20.523 20.523-0.52734 11.051-9.4766 20.523-20.523 20.523z"/>
</svg>
